<svg width="32" height="32" viewBox="0 0 32 32" fill="none" xmlns="http://www.w3.org/2000/svg">
<path d="M32 30H0V0H17.9115C18.4425 0 20.3384 0.759898 20.909 1.0401C28.7504 4.89442 29.9299 15.635 25.5009 22.8975L32 30ZM22.6549 25.8883L20.109 23.0711C23.3317 20.2538 24.4432 16.1832 24.0694 11.8051C23.7352 7.90812 20.0453 3.95939 16.3554 3.95939H3.82301V25.8883H9.13274C9.18655 25.8883 9.62832 25.5426 9.62832 25.5076V10.3553H15.3628C15.5993 10.3553 16.674 11.0558 16.9161 11.2736C19.292 13.3995 18.3519 16.998 15.9476 18.568L13.3083 15.8376V25.8883H22.6549Z" fill="#5046E6"/>
</svg>