<svg xmlns="http://www.w3.org/2000/svg" width="100%" viewBox="0 0 1200 1152" fill="none" class="hero-cta_svg"><path d="M91.5631 111.812C91.2585 112.878 89.7358 118.969 88.3654 125.212C86.995 131.455 85.0154 139.982 83.7973 144.245C71.7679 189.47 70.2452 223.274 79.3814 247.333C86.2336 265.91 90.0404 272.762 92.9335 272.762C96.588 272.914 111.511 248.703 117.601 232.562C127.347 207.438 127.803 205.154 127.803 181.399C127.956 157.493 127.651 156.427 117.601 136.175C114.556 130.237 109.379 123.232 104.049 118.207C95.3698 109.832 92.4767 108.462 91.5631 111.812Z" fill="yellow"></path><path d="M1098.38 116.38C1086.8 127.344 1080.71 136.48 1075.69 151.402C1071.27 164.193 1070.97 197.236 1075.08 211.245C1082.84 237.892 1101.88 273.523 1107.66 272.457C1109.8 272.153 1115.89 261.494 1119.85 251.596C1123.2 242.917 1127.61 218.858 1127.61 208.961C1127.61 197.236 1123.2 171.35 1116.19 143.484C1115.13 138.916 1112.84 129.628 1111.32 123.08C1109.64 116.38 1107.82 110.746 1106.9 110.442C1106.14 110.137 1102.33 112.878 1098.38 116.38Z" fill="yellow"></path><path d="M18.4731 223.731C16.9504 225.254 17.4072 242.765 19.0822 251.749C19.9958 256.317 21.3663 265.453 22.1276 272.153C25.4776 302.759 34.3093 334.432 45.5773 356.663C54.2567 374.022 74.2041 394.578 82.579 394.731C85.4721 394.731 85.929 393.665 86.9948 384.376C89.4312 360.927 85.929 321.945 78.9245 297.278C69.636 263.93 52.1249 237.435 34.0047 229.06C23.1935 224.188 19.3867 222.817 18.4731 223.731Z" fill="yellow"></path><path d="M1174.82 225.101C1161.57 229.365 1146.95 242.308 1137.81 257.535C1119.85 287.837 1109.8 338.086 1113.15 381.026C1114.36 396.558 1115.73 397.776 1125.02 391.381C1146.95 376.154 1160.5 352.399 1170.7 311.743C1174.97 295.146 1177.86 279.766 1177.86 275.198C1177.86 272.61 1178.93 265.301 1180.15 258.753C1181.36 252.205 1182.43 241.699 1182.43 235.456C1182.43 223.579 1181.82 222.817 1174.82 225.101Z" fill="yellow"></path><path d="M158.41 298.343C138.31 323.62 119.733 359.556 111.51 388.64C105.115 410.871 104.354 415.896 104.354 435.996C104.354 462.034 107.247 471.78 119.429 487.463C124.301 493.707 124.758 493.859 126.738 491.27C128.869 488.377 153.08 439.346 157.344 429.753C158.562 426.86 160.542 422.444 161.607 420.16C162.826 417.724 163.739 414.83 163.739 413.46C163.739 412.242 164.653 409.349 165.871 407.217C168.155 402.801 171.201 393.056 174.855 378.742C180.794 355.597 182.012 334.279 178.357 317.073C176.225 306.414 169.069 289.664 166.632 289.664C165.871 289.664 162.217 293.623 158.41 298.343Z" fill="yellow"></path><path d="M1030.62 293.775C1024.68 302.759 1019.5 323.925 1019.5 338.391C1019.65 353.009 1024.98 381.94 1029.55 392.903C1030.77 395.644 1031.68 398.842 1031.68 400.06C1031.68 401.278 1032.59 404.476 1033.81 407.217C1035.03 409.958 1037.47 416.049 1039.29 420.617C1048.43 443.457 1072.79 492.184 1075.08 492.184C1079.19 492.184 1088.63 478.023 1093.2 465.08C1095.48 458.684 1096.09 452.441 1095.94 436.453C1095.94 414.83 1094.11 404.324 1086.96 383.31C1084.82 377.372 1082.69 370.52 1081.93 368.083C1076.45 350.268 1039.6 289.664 1034.12 289.664C1033.66 289.664 1031.99 291.491 1030.62 293.775Z" fill="yellow"></path><path d="M4.76885 341.131C2.94161 342.806 3.85523 372.651 6.29156 388.487C9.1847 408.891 12.6869 427.012 15.4278 435.843C19.3868 449.091 23.6504 461.882 25.0208 464.47C31.873 478.022 34.1571 482.134 39.7911 490.813C46.6432 501.167 69.7884 524.617 75.8792 527.206C77.7064 528.119 82.1223 530.556 85.7768 532.687C95.2175 538.169 97.0448 536.951 95.8266 526.14C93.238 499.949 82.7314 453.811 74.3565 432.037C73.1383 428.687 71.0065 423.205 69.6361 419.855C66.8952 412.698 62.3271 402.801 59.7385 398.537C49.0796 380.874 42.8365 372.499 33.7003 362.906C23.0413 351.942 6.44383 339.304 4.76885 341.131Z" fill="yellow"></path><path d="M1183.95 347.831C1170.4 358.033 1163.85 364.581 1154.26 377.372C1135.07 402.649 1120.91 438.128 1111.78 483.047C1108.43 499.493 1105.08 519.136 1104.16 527.663C1103.1 537.256 1105.08 537.865 1116.5 531.622C1134.77 521.572 1153.19 503.452 1165.22 483.809C1168.42 478.632 1177.86 458.684 1177.86 457.161C1177.86 456.4 1178.77 453.507 1179.99 450.766C1184.71 439.803 1189.74 417.876 1193.85 390.619C1196.29 374.479 1197.05 342.045 1195.07 340.979C1194.31 340.522 1189.43 343.72 1183.95 347.831Z" fill="yellow"></path><path d="M166.023 460.816C164.805 463.709 163.739 467.972 163.739 470.256C163.739 472.388 162.521 478.479 161.151 483.656C157.344 497.97 157.344 566.035 161.151 582.023C167.851 609.279 171.048 618.263 180.489 638.363C189.625 657.854 208.964 687.09 212.618 687.09C215.968 687.09 220.232 675.06 223.125 657.397C223.734 653.133 225.104 646.738 226.323 642.931C229.368 631.968 228.911 573.344 225.561 560.705C217.795 531.012 210.03 511.217 200.284 495.99C198.609 493.402 196.63 490.052 195.868 488.377C193.432 483.352 172.266 456.704 170.135 455.943C169.069 455.638 167.242 457.77 166.023 460.816Z" fill="yellow"></path><path d="M1019.8 467.364C1010.67 478.784 997.877 498.275 994.984 504.974C994.223 506.649 993.004 509.238 992.243 510.456C986.761 519.745 979.452 541.063 974.427 562.076C971.23 575.78 970.773 630.141 973.818 641.409C974.884 645.216 976.255 652.068 977.016 656.636C979.148 670.645 983.564 684.349 986.304 686.176C988.436 687.395 989.502 687.09 991.329 684.806C994.222 680.999 1007.47 661.356 1009.75 657.397C1013.87 650.393 1027.11 623.289 1027.11 621.766C1027.11 620.852 1028.03 617.959 1029.24 615.218C1040.36 589.028 1045.23 547.153 1041.73 508.172C1040.51 494.772 1038.69 481.373 1037.92 478.479C1037.01 475.586 1036.25 471.17 1036.25 468.582C1036.25 463.557 1033.36 457.009 1030.77 456.096C1029.85 455.791 1024.83 460.816 1019.8 467.364Z" fill="yellow"></path><path d="M4.76884 514.72C3.3984 516.851 9.94604 537.256 16.4937 551.569C27.3049 575.476 50.6023 598.773 81.0564 616.284C87.604 620.091 93.9994 623.898 95.2175 624.659C104.963 630.445 155.517 655.113 157.801 655.113C160.389 655.113 160.694 654.352 159.932 649.327C158.258 639.429 154.451 628.313 147.446 613.239C136.178 588.723 112.12 565.121 77.7064 544.412C69.7883 539.692 41.9228 526.597 28.2185 521.115C23.6504 519.44 17.8641 516.851 15.58 515.633C10.7074 513.197 5.987 512.892 4.76884 514.72Z" fill="yellow"></path><path d="M1183.95 516.09C1181.06 517.461 1176.34 519.44 1173.75 520.506C1162.48 525.226 1157.76 527.206 1153.04 529.185C1145.73 532.383 1127.31 541.824 1121.37 545.326C1118.48 547.153 1115.13 548.981 1113.91 549.59C1111.78 550.503 1106.9 554.006 1093.35 564.055C1084.98 570.451 1066.7 589.789 1061.37 598.012C1055.44 607.452 1045.39 628.314 1045.39 631.359C1045.39 632.425 1044.32 635.927 1043.1 638.82C1040.06 645.977 1040.06 655.113 1042.95 655.113C1044.78 655.113 1100.66 627.4 1113.91 619.939C1141.77 604.103 1166.59 581.871 1178.93 561.467C1186.54 548.981 1197.35 518.222 1195.37 515.024C1194 512.893 1190.19 513.349 1183.95 516.09Z" fill="yellow"></path><path d="M39.7912 633.643C38.8775 635.014 40.248 640.038 41.7707 641.409C42.2275 641.866 44.3593 644.607 46.4911 647.5C65.0681 674.147 101.156 708.256 126.433 723.026C130.544 725.462 135.417 728.203 137.092 729.269C138.767 730.335 141.66 731.858 143.64 732.771C145.619 733.533 150.644 735.817 155.06 737.796C177.291 747.998 198.457 753.48 227.693 757.134C244.138 759.114 244.443 759.114 244.443 756.373C244.443 753.328 228.607 729.269 217.795 716.021C205.766 701.403 173.637 672.168 165.262 668.361C164.044 667.752 160.998 665.924 158.41 664.249C151.862 660.138 136.178 651.916 131.763 650.545C129.631 649.784 124.301 647.804 119.733 646.129C107.247 641.409 88.67 637.298 70.8544 635.318C42.3798 632.273 40.7048 632.12 39.7912 633.643Z" fill="yellow"></path><path d="M1148.93 633.186C1105.53 637.145 1085.43 642.17 1056.81 656.179C1035.03 666.99 1020.72 677.04 1002.45 695.16C980.823 716.326 952.5 754.546 955.85 758.048C957.068 759.114 983.868 756.069 997.42 753.175C1021.33 748.151 1035.18 743.278 1057.57 732.01C1067.62 726.985 1088.93 713.89 1091.07 711.453C1091.52 710.996 1094.87 708.256 1098.68 705.362C1114.82 693.181 1135.22 672.015 1150.3 652.068C1162.02 636.384 1163.09 634.252 1160.2 633.186C1158.83 632.729 1157 632.425 1156.09 632.577C1155.02 632.577 1151.82 633.034 1148.93 633.186Z" fill="yellow"></path><path d="M246.879 639.429C243.986 642.475 250.381 680.999 256.776 700.033C257.69 702.469 259.061 706.58 259.67 709.169C262.41 718.762 270.938 739.775 274.897 746.475C275.658 747.693 277.942 751.957 280.074 755.916C284.947 764.9 293.93 778.909 296.519 781.65C297.585 782.868 301.544 787.588 305.351 792.156C318.903 808.602 338.393 826.113 357.275 838.294C366.259 844.233 369.152 845.147 369.457 841.949C371.284 820.936 363.061 777.386 352.402 751.805C349.052 743.582 340.221 726.071 337.328 721.351C335.653 718.762 333.825 715.717 333.216 714.498C330.78 709.017 317.532 693.028 306.264 681.608C294.996 670.34 270.481 650.545 267.892 650.545C267.283 650.545 265.608 649.631 264.39 648.413C260.279 644.911 247.793 638.516 246.879 639.429Z" fill="yellow"></path><path d="M947.171 641.561C944.735 643.084 941.537 644.911 940.319 645.52C939.101 646.129 934.989 648.566 931.183 651.154C906.21 667.752 880.933 692.419 867.838 712.976C855.656 732.314 843.475 759.418 839.82 775.407C839.211 778.3 837.993 783.782 837.079 787.588C832.664 805.556 830.684 819.261 830.684 830.833C830.684 837.685 831.141 843.776 831.598 844.385C833.882 846.669 865.554 822.915 881.695 806.622C904.383 783.934 918.696 762.312 933.314 728.964C945.496 701.251 957.982 644.454 953.11 639.886C952.348 639.277 949.76 640.038 947.171 641.561Z" fill="yellow"></path><path d="M147.751 760.332C137.853 761.55 128.108 764.747 125.367 767.488C124.301 768.554 122.778 769.316 121.865 769.316C119.429 769.316 113.49 775.863 113.49 778.756C113.49 780.584 136.178 796.877 145.467 801.749C146.685 802.358 149.883 804.186 152.319 805.861C154.908 807.535 158.258 809.515 159.932 810.429C161.607 811.342 167.089 814.388 172.114 817.281C183.078 823.676 218.1 840.883 227.693 844.689C231.5 846.212 236.677 848.192 239.113 849.258C241.702 850.323 247.488 852.303 252.056 853.521C256.624 854.892 264.542 857.023 269.567 858.546C283.119 862.353 318.903 862.505 328.191 858.546C338.546 854.282 339.612 853.673 340.068 851.085C340.678 848.039 320.882 830.528 296.519 812.865C291.342 809.058 286.774 805.861 286.469 805.861C286.012 805.861 281.749 803.272 276.876 800.074C267.435 793.679 266.065 792.918 247.945 784.086C227.541 773.884 210.029 766.879 201.807 765.204C199.675 764.747 194.955 763.529 191.148 762.463C182.469 759.875 159.628 758.809 147.751 760.332Z" fill="yellow"></path><path d="M1023.31 760.18C1011.58 761.398 998.791 764.595 986 769.468C981.432 771.143 975.798 773.123 973.666 773.884C971.534 774.493 968.489 775.711 966.814 776.625C965.291 777.539 958.744 780.736 952.501 783.782C924.33 797.486 891.44 819.87 867.99 841.34C857.636 850.933 857.636 853.217 867.99 857.176C892.354 866.312 934.38 861.287 973.057 844.69C982.65 840.426 999.095 832.965 1001.23 831.747C1002.45 830.985 1008.99 827.636 1015.69 824.133C1022.39 820.783 1030.01 816.52 1032.44 814.997C1035.03 813.322 1038.38 811.343 1040.06 810.429C1041.73 809.515 1045.23 807.536 1047.67 805.861C1050.26 804.186 1053.3 802.359 1054.52 801.75C1055.74 801.14 1061.07 797.79 1066.4 794.136C1071.73 790.481 1076.3 787.588 1076.75 787.588C1077.21 787.588 1079.49 786.066 1081.93 784.238C1088.63 779.366 1087.87 775.407 1079.04 769.62C1074.77 767.032 1070.66 764.748 1069.75 764.748C1068.84 764.748 1066.25 763.834 1063.96 762.616C1058.79 760.027 1037.16 758.657 1023.31 760.18Z" fill="yellow"></path><path d="M392.906 765.509C392.145 765.813 389.556 766.422 387.272 766.879C381.791 768.097 381.791 771.904 386.968 779.518C389.1 782.715 391.536 786.674 392.297 788.349C393.059 790.024 395.038 793.374 396.713 795.963C398.388 798.399 400.368 801.901 401.281 803.576C402.195 805.251 404.174 808.601 405.849 811.19C407.524 813.626 409.504 817.129 410.417 818.803C411.331 820.478 413.158 823.676 414.681 825.96C416.051 828.244 420.01 834.335 423.208 839.665C438.131 863.571 461.733 890.675 478.939 903.923C489.446 911.993 504.368 918.998 516.398 921.434C528.427 924.022 532.843 923.261 533.452 918.845C534.213 914.125 528.732 896.005 522.336 881.234C516.398 867.53 513.352 861.896 506.043 850.323C503.607 846.669 501.78 843.471 501.78 843.015C501.78 842.558 496.755 835.553 490.512 827.483C471.326 802.358 446.81 780.888 427.928 772.513C417.879 768.097 397.474 763.986 392.906 765.509Z" fill="yellow"></path><path d="M787.287 767.793C771.298 771.904 766.73 774.189 749.219 787.132C729.424 801.597 708.258 825.961 692.574 852.303C689.377 857.633 675.825 885.651 673.388 891.894C669.582 901.791 665.775 918.084 666.689 920.673C667.907 923.566 674.15 923.718 686.027 920.977C715.263 914.582 745.869 887.326 776.171 840.883C782.414 831.29 802.209 798.704 803.732 795.202C804.341 793.984 806.168 790.786 807.843 788.35C809.518 785.761 811.346 782.716 811.955 781.498C812.411 780.279 814.086 777.691 815.609 775.711C819.264 770.991 817.893 768.25 811.193 766.27C803.732 764.291 799.925 764.443 787.287 767.793Z" fill="yellow"></path><path d="M263.476 880.473C258.451 881.234 249.62 882.605 243.681 883.366C208.354 888.543 181.707 905.141 171.81 927.981C170.744 930.265 170.439 932.397 171.048 932.702C173.18 933.92 200.132 938.336 220.841 940.772C251.295 944.579 319.207 944.579 337.328 940.772C366.411 934.833 388.186 925.545 400.977 913.516C409.504 905.293 410.57 902.704 406.002 900.42C399.759 896.918 373.111 889.761 353.316 885.955C324.841 880.625 280.531 877.884 263.476 880.473Z" fill="yellow"></path><path d="M897.683 879.712C896.465 880.016 887.176 881.082 877.127 881.996C859.768 883.671 844.388 886.107 829.161 889.914C825.355 890.827 819.873 892.046 816.98 892.655C805.103 895.396 791.094 901.182 791.094 903.466C791.094 905.445 801.905 916.409 808.605 920.977C814.543 924.936 830.075 932.397 836.014 933.92C838.602 934.529 842.713 935.747 845.15 936.509C847.738 937.422 856.266 939.402 864.184 940.772C884.131 944.579 948.694 944.579 979.148 940.772C1003.66 937.879 1027.42 933.768 1029.09 932.397C1033.05 928.895 1013.56 904.379 1002.14 898.745C998.791 896.918 994.832 894.939 993.614 894.33C985.695 889.761 966.357 884.432 948.694 881.996C936.055 880.321 901.642 878.646 897.683 879.712Z" fill="yellow"></path><path d="M446.962 936.204C428.385 939.402 412.092 942.904 405.088 945.34C401.586 946.558 397.779 947.472 396.408 947.472C394.886 947.472 391.536 948.386 388.795 949.604C386.054 950.822 380.725 952.954 376.918 954.324C327.582 973.51 294.539 1003.81 290.885 1033.35C289.971 1039.9 290.276 1041.88 291.799 1041.88C294.844 1041.88 328.496 1035.79 347.225 1031.83C353.164 1030.61 359.254 1029.7 360.929 1029.7C363.823 1029.7 373.568 1027.72 394.429 1022.54C439.196 1011.73 472.087 997.112 492.948 978.535C505.739 967.267 522.032 942.752 518.834 939.554C513.2 933.92 472.544 931.94 446.962 936.204Z" fill="yellow"></path><path d="M689.073 936.509C684.505 938.031 680.698 939.859 680.698 940.62C680.698 941.534 682.83 946.254 685.266 951.127C690.748 961.938 707.345 980.21 718.765 987.824C727.445 993.458 750.438 1005.79 755.463 1007.31C756.985 1007.77 763.228 1009.75 769.015 1011.88C778.912 1015.23 783.023 1016.45 804.95 1022.69C809.671 1024.06 814.696 1025.13 816.371 1025.13C817.893 1025.13 823.68 1026.04 829.161 1027.26C849.261 1031.83 862.052 1034.27 865.402 1034.27C867.381 1034.27 873.168 1035.18 878.345 1036.4C892.811 1039.75 909.865 1042.49 910.626 1041.58C911.692 1040.51 907.733 1024.22 904.992 1018.28C896.617 999.701 874.843 978.992 852.002 967.42C848.195 965.592 844.084 963.461 842.866 962.851C839.668 961.024 830.989 957.37 823.832 954.629C820.482 953.411 815 951.431 811.65 950.061C774.801 936.509 711.609 929.504 689.073 936.509Z" fill="yellow"></path><path d="M571.063 967.267C566.038 969.856 558.729 973.815 554.77 976.099C531.016 989.955 512.134 1012.49 510.612 1028.94L510.155 1033.5L519.443 1033.96C531.473 1034.57 543.654 1029.09 553.856 1018.73C562.079 1010.36 568.931 997.112 581.113 966.049C582.788 961.633 581.874 961.785 571.063 967.267Z" fill="yellow"></path><path d="M620.551 968.334C622.835 975.643 626.641 985.54 628.012 988.281C628.773 989.652 631.057 994.22 633.037 998.179C639.28 1011.27 640.346 1012.64 649.33 1020.87C659.836 1030.31 669.429 1034.27 681.916 1034.27H690.9L689.834 1028.18C689.225 1024.83 687.093 1019.19 685.113 1015.54C683.134 1012.04 680.85 1007.77 680.088 1006.1C676.738 998.483 654.659 980.82 635.473 970.465C621.464 962.852 618.723 962.547 620.551 968.334Z" fill="yellow"></path></svg>