<svg width="1773" height="1089" viewBox="0 0 1773 1089" fill="none" xmlns="http://www.w3.org/2000/svg">
<path d="M412.437 648.949C421.192 655.204 431.918 658.885 443.503 658.885V636.604C441.31 636.605 439.124 636.376 436.979 635.922V653.46C425.395 653.46 414.67 649.78 405.913 643.524V688.993C405.913 711.739 387.464 730.176 364.708 730.176C356.218 730.176 348.326 727.611 341.77 723.211C349.252 730.857 359.687 735.601 371.231 735.601C393.988 735.601 412.438 717.163 412.438 694.416V648.949H412.437ZM420.485 626.47C416.01 621.584 413.072 615.27 412.437 608.29V605.424H406.254C407.81 614.296 413.118 621.876 420.485 626.47ZM356.163 705.756C353.663 702.48 352.312 698.472 352.318 694.351C352.318 683.948 360.756 675.513 371.167 675.513C373.107 675.513 375.035 675.81 376.884 676.396V653.618C374.724 653.322 372.543 653.196 370.363 653.242V670.972C368.513 670.385 366.583 670.088 364.643 670.089C354.232 670.089 345.795 678.523 345.795 688.928C345.795 696.284 350.012 702.654 356.163 705.756Z" fill="#FF004F"/>
<path d="M405.913 643.524C414.671 649.779 425.395 653.46 436.979 653.46V635.922C430.513 634.545 424.789 631.168 420.485 626.47C413.118 621.876 407.81 614.296 406.254 605.424H390.015V694.415C389.978 704.79 381.554 713.191 371.166 713.191C365.044 713.191 359.606 710.274 356.162 705.756C350.011 702.654 345.794 696.284 345.794 688.928C345.794 678.525 354.231 670.09 364.642 670.09C366.636 670.09 368.559 670.4 370.362 670.972V653.242C348.006 653.704 330.026 671.962 330.026 694.416C330.026 705.625 334.504 715.786 341.771 723.211C348.326 727.611 356.218 730.177 364.709 730.177C387.465 730.177 405.913 711.738 405.913 688.993V643.524H405.913Z" fill="black"/>
<path d="M436.979 635.922V631.18C431.148 631.188 425.432 629.556 420.485 626.47C424.864 631.262 430.631 634.566 436.979 635.922ZM406.254 605.424C406.106 604.576 405.992 603.723 405.913 602.866V600H383.49V688.993C383.454 699.366 375.031 707.766 364.642 707.766C361.592 707.766 358.712 707.043 356.162 705.757C359.606 710.274 365.045 713.19 371.166 713.19C381.553 713.19 389.978 704.791 390.015 694.416V605.424H406.254ZM370.363 653.243V648.194C368.49 647.938 366.601 647.81 364.709 647.811C341.951 647.81 323.503 666.249 323.503 688.993C323.503 703.252 330.753 715.818 341.771 723.21C334.504 715.786 330.027 705.624 330.027 694.416C330.027 671.962 348.006 653.704 370.363 653.243Z" fill="#00F2EA"/>
<path d="M457.05 852.644C474.545 852.644 488.727 838.576 488.727 821.224C488.727 803.872 474.545 789.802 457.05 789.802H452.278C469.773 789.802 483.955 803.872 483.955 821.224C483.955 838.576 469.773 852.644 452.278 852.644H457.05Z" fill="#FF004F"/>
<path d="M451.846 789.802H447.074C429.58 789.802 415.395 803.872 415.395 821.224C415.395 838.576 429.58 852.644 447.074 852.644H451.846C434.349 852.644 420.167 838.576 420.167 821.224C420.166 803.872 434.349 789.802 451.846 789.802Z" fill="#00F2EA"/>
<path d="M211.019 775.601V791.527H229.674V852.214H248.337V791.957H263.523L268.73 775.601L211.019 775.601ZM363.76 775.601V791.527H382.415V852.214H401.078V791.957H416.264L421.47 775.601L363.76 775.601ZM272.205 784.639C272.205 779.648 276.278 775.601 281.31 775.601C286.346 775.601 290.424 779.648 290.424 784.639C290.424 789.63 286.349 793.677 281.31 793.677C276.278 793.675 272.205 789.63 272.205 784.639ZM272.205 800.135H290.424V852.214H272.205V800.135ZM298.236 775.601V852.214H316.462V832.417L322.103 827.247L339.892 852.644H359.417L333.813 815.629L356.812 793.245H334.683L316.462 811.321V775.601H298.236ZM494.799 775.601V852.214H513.028V832.417L518.667 827.247L536.46 852.644H555.988L530.384 815.629L553.382 793.245H531.254L513.028 811.321V775.601H494.799Z" fill="black"/>
<path d="M452.277 852.644C469.771 852.644 483.956 838.576 483.956 821.224C483.956 803.872 469.771 789.802 452.277 789.802H451.844C434.349 789.802 420.167 803.872 420.167 821.224C420.167 838.576 434.349 852.644 451.844 852.644H452.277ZM436.656 821.224C436.656 812.783 443.556 805.946 452.064 805.946C460.567 805.946 467.466 812.783 467.466 821.224C467.466 829.664 460.567 836.505 452.064 836.505C443.556 836.504 436.656 829.664 436.656 821.224Z" fill="black"/>
<path d="M880.614 601.027C852.732 601.027 844.578 601.056 842.993 601.188C837.271 601.663 833.711 602.564 829.832 604.495C826.843 605.98 824.485 607.7 822.158 610.112C817.921 614.511 815.353 619.922 814.423 626.355C813.971 629.478 813.84 630.115 813.813 646.066C813.803 651.383 813.813 658.38 813.813 667.766C813.813 695.625 813.844 703.771 813.978 705.353C814.44 710.921 815.313 714.424 817.162 718.255C820.696 725.59 827.445 731.096 835.396 733.15C838.149 733.859 841.189 734.249 845.093 734.434C846.747 734.506 863.604 734.557 880.471 734.557C897.338 734.557 914.205 734.537 915.818 734.455C920.338 734.242 922.963 733.89 925.865 733.14C933.867 731.075 940.493 725.651 944.098 718.214C945.911 714.475 946.831 710.838 947.247 705.562C947.337 704.411 947.375 686.068 947.375 667.749C947.375 649.427 947.334 631.117 947.244 629.967C946.822 624.605 945.903 620.999 944.031 617.188C942.496 614.068 940.79 611.738 938.315 609.356C933.897 605.136 928.493 602.568 922.055 601.64C918.935 601.189 918.313 601.055 902.35 601.027H880.614Z" fill="url(#paint0_radial_384_40)"/>
<path d="M880.614 601.027C852.732 601.027 844.578 601.056 842.993 601.188C837.271 601.663 833.711 602.564 829.832 604.495C826.843 605.98 824.485 607.7 822.158 610.112C817.921 614.511 815.353 619.922 814.423 626.355C813.971 629.478 813.84 630.115 813.813 646.066C813.803 651.383 813.813 658.38 813.813 667.766C813.813 695.625 813.844 703.771 813.978 705.353C814.44 710.921 815.313 714.424 817.162 718.255C820.696 725.59 827.445 731.096 835.396 733.15C838.149 733.859 841.189 734.249 845.093 734.434C846.747 734.506 863.604 734.557 880.471 734.557C897.338 734.557 914.205 734.537 915.818 734.455C920.338 734.242 922.963 733.89 925.865 733.14C933.867 731.075 940.493 725.651 944.098 718.214C945.911 714.475 946.831 710.838 947.247 705.562C947.337 704.411 947.375 686.068 947.375 667.749C947.375 649.427 947.334 631.117 947.244 629.967C946.822 624.605 945.903 620.999 944.031 617.188C942.496 614.068 940.79 611.738 938.315 609.356C933.897 605.136 928.493 602.568 922.055 601.64C918.935 601.189 918.313 601.055 902.35 601.027H880.614Z" fill="url(#paint1_radial_384_40)"/>
<path d="M880.583 618.49C867.192 618.49 865.512 618.549 860.252 618.788C855.003 619.029 851.42 619.86 848.285 621.079C845.042 622.338 842.291 624.023 839.55 626.765C836.807 629.505 835.123 632.256 833.859 635.498C832.637 638.634 831.805 642.218 831.568 647.466C831.333 652.725 831.271 654.407 831.271 667.798C831.271 681.189 831.331 682.864 831.569 688.124C831.811 693.373 832.642 696.956 833.86 700.091C835.121 703.334 836.805 706.085 839.547 708.826C842.287 711.569 845.038 713.257 848.278 714.517C851.416 715.736 855 716.567 860.248 716.808C865.507 717.047 867.187 717.105 880.577 717.105C893.969 717.105 895.645 717.047 900.904 716.808C906.153 716.567 909.74 715.736 912.878 714.517C916.12 713.257 918.866 711.569 921.606 708.826C924.349 706.085 926.033 703.334 927.297 700.092C928.509 696.956 929.341 693.372 929.588 688.125C929.824 682.865 929.886 681.189 929.886 667.798C929.886 654.407 929.824 652.726 929.588 647.467C929.341 642.217 928.509 638.634 927.297 635.499C926.033 632.256 924.349 629.505 921.606 626.765C918.863 624.022 916.121 622.337 912.875 621.079C909.731 619.86 906.146 619.029 900.897 618.788C895.637 618.549 893.963 618.49 880.568 618.49H880.583ZM876.16 627.376C877.473 627.374 878.938 627.376 880.583 627.376C893.748 627.376 895.309 627.423 900.508 627.659C905.315 627.879 907.924 628.683 909.662 629.357C911.963 630.251 913.604 631.319 915.329 633.045C917.054 634.771 918.123 636.415 919.018 638.716C919.693 640.452 920.498 643.061 920.716 647.868C920.953 653.066 921.004 654.628 921.004 667.787C921.004 680.946 920.953 682.507 920.716 687.705C920.497 692.512 919.693 695.121 919.018 696.857C918.125 699.158 917.054 700.797 915.329 702.522C913.603 704.247 911.964 705.316 909.662 706.209C907.926 706.887 905.315 707.689 900.508 707.909C895.31 708.145 893.748 708.196 880.583 708.196C867.417 708.196 865.857 708.145 860.659 707.909C855.851 707.687 853.242 706.883 851.503 706.208C849.202 705.315 847.558 704.246 845.833 702.521C844.107 700.795 843.039 699.155 842.143 696.853C841.468 695.117 840.664 692.508 840.445 687.701C840.208 682.503 840.161 680.941 840.161 667.774C840.161 654.607 840.208 653.054 840.445 647.856C840.665 643.049 841.468 640.439 842.143 638.701C843.036 636.4 844.107 634.757 845.833 633.031C847.558 631.305 849.202 630.237 851.503 629.341C853.241 628.663 855.851 627.862 860.659 627.641C865.207 627.435 866.97 627.374 876.16 627.364V627.376ZM906.903 635.563C903.637 635.563 900.986 638.21 900.986 641.478C900.986 644.744 903.637 647.395 906.903 647.395C910.17 647.395 912.82 644.744 912.82 641.478C912.82 638.211 910.17 635.561 906.903 635.561V635.563ZM880.583 642.476C866.599 642.476 855.262 653.814 855.262 667.798C855.262 681.782 866.599 693.114 880.583 693.114C894.567 693.114 905.901 681.782 905.901 667.798C905.901 653.814 894.567 642.476 880.583 642.476ZM880.583 651.362C889.66 651.362 897.019 658.72 897.019 667.798C897.019 676.875 889.66 684.234 880.583 684.234C871.505 684.234 864.147 676.875 864.147 667.798C864.147 658.72 871.505 651.362 880.583 651.362Z" fill="white"/>
<path d="M712.255 768.785C711.737 767.014 706.449 765.596 704.868 765.596C694.349 765.597 681.136 782.998 681.136 796.764C681.136 802.652 685.773 808.621 690.473 810.571C692.401 811.371 693.72 811.365 694.205 810.688C694.672 810.036 694.433 808.82 693.295 807.146C691.274 804.173 690.58 798.628 690.506 795.417C690.351 788.71 694.987 776.805 700.179 772.813C700.648 772.452 701.479 771.858 701.479 772.983C701.479 793.022 701.479 813.02 701.479 833.059C701.479 836.206 700.715 840.883 700.083 844.381C699.878 845.511 697.524 851.371 699.4 851.371C701.122 851.371 704.773 848.891 706.075 847.503C708.6 844.814 710.395 841.275 711.385 837.59C711.977 835.388 712.281 830.22 712.281 828.063V768.914C712.278 768.884 712.272 768.847 712.255 768.785Z" fill="url(#paint2_linear_384_40)"/>
<path d="M1079.5 823.492C1079.18 823.211 1078.78 823.006 1078.31 823.006C1077.44 823.006 1076.87 823.502 1076.69 824.23C1076.34 825.658 1075.83 827.97 1075.34 829.564C1074.48 832.341 1073.18 834.997 1071 834.997C1066.98 834.997 1066.09 827.271 1065.9 824.767C1065.66 821.678 1065.64 818.164 1065.56 815.451V805.745L1065.95 800.656C1066.04 799.404 1066.24 798.451 1065.92 797.245C1065.65 796.213 1065.04 795.317 1064.21 794.686C1062.49 793.368 1057.81 791.74 1056.04 791.74C1055.05 791.74 1054.15 792.14 1053.5 792.786C1052.79 793.491 1052.25 794.792 1051.88 795.669C1050.97 797.876 1050.18 799.856 1049.5 801.737C1048.66 804.048 1047.53 807.75 1046.63 811.339C1046 813.82 1045.58 816.045 1045.2 818.491C1045.14 818.858 1045.14 818.958 1045.08 819.325C1045.08 819.338 1045.05 819.569 1045.02 819.648C1044.93 819.863 1044.66 819.807 1044.62 819.577C1044.57 819.285 1044.55 819.034 1044.52 818.739C1044.03 813.038 1043.53 807.098 1043.67 801.348C1043.71 799.874 1043.75 798.105 1043.46 797.023C1043.22 796.107 1042.76 795.281 1042.14 794.6C1040.66 792.973 1038.11 792.195 1036.03 791.921C1035.02 791.787 1033.8 791.56 1032.89 792.095C1032.03 792.598 1031.34 793.984 1030.94 794.784C1028.33 800.004 1026.25 806.964 1024.32 812.762L1024.39 796.03C1024.39 795.647 1024.42 794.991 1024.32 794.612C1024.2 794.132 1023.92 793.718 1023.53 793.426C1023.4 793.327 1022.9 793.093 1022.5 792.979C1020.79 792.499 1019.18 792.157 1017.41 791.899C1017.02 791.843 1016.42 791.747 1016.04 791.747C1015.39 791.747 1014.85 792.129 1014.58 792.671C1014.07 793.686 1014.1 812.622 1014.14 820.416C1013.89 822.53 1013.48 825.312 1012.69 827.924C1012.02 830.133 1009.77 834.648 1007.11 835.177C1004.3 835.738 1002.67 832.824 1002.04 828.305C1001.22 820.918 1001.58 807.036 1002.03 799.222C1002.25 795.432 1002.95 794.008 998.95 792.979C996.233 792.28 994.589 792.173 993.467 792.34C992.306 792.513 991.761 793.911 991.947 796.394C988.479 791.086 983.499 790.335 980.012 790.712C971.837 791.594 966.002 803.564 965.004 812.642C964.397 818.174 964.92 823.21 965.595 827.396C965.398 830.199 964.965 835.275 959.926 834.996C955.769 834.766 953.378 827.94 954.115 818.791C954.581 812.985 956.495 804.796 957.054 802.072C958.278 796.102 954.781 794.952 949.877 795.606C947.297 795.951 943.751 796.694 939.844 797.349C940.66 794.347 940.351 791.133 938.02 790.02C935.893 789.004 932.214 789.211 930.139 791.498C927.195 794.741 926.419 800.535 930.891 803.461C930.345 807.975 925.226 820.239 918.723 828.841C918.825 823.906 919.332 801.729 919.078 795.811C918.987 793.676 917.083 792.844 915.351 792.472C915.082 792.414 912.852 792.199 912.852 792.177C911.669 792.078 910.551 792.238 909.764 792.87C908.753 793.684 908.801 794.626 908.931 796.432C905.229 790.764 900.04 790.299 896.331 791.039C888.535 792.594 883.062 803.7 882.079 812.641C881.684 816.24 881.659 819.781 881.868 822.987C881.951 824.262 882.068 825.475 882.242 826.639C881.002 831.113 878.91 834.604 876.273 835.176C873.472 835.783 871.84 832.823 871.206 828.304C870.386 820.917 870.744 807.034 871.193 799.221C871.411 795.43 872.117 794.007 868.116 792.977C865.398 792.279 863.754 792.172 862.632 792.339C861.472 792.512 860.927 793.909 861.112 796.392C857.645 791.085 852.664 790.334 849.177 790.71C841.003 791.593 835.167 803.563 834.17 812.641C833.819 815.838 833.845 818.869 834.06 821.668C833.431 823.608 832.428 826.037 831.659 827.486C826.719 836.809 821.214 835.697 820.342 824.367C820.075 820.889 820.006 817.213 820.006 813.712C820.286 805.638 820.566 797.564 820.846 789.49C825.289 789.527 829.794 789.501 834.463 789.36C836.353 789.304 837.572 783.114 835.813 782.991C830.898 782.65 826.004 782.337 821.105 782.054L821.554 769.103C821.554 769.063 821.556 769.025 821.53 768.933C821.269 768.04 820.578 767.671 819.728 767.391C818.73 767.062 817.134 766.562 815.609 766.18C813.418 765.632 810.443 764.874 810.211 768.2C810.038 770.702 809.855 775.758 809.699 781.454C806.278 781.291 802.844 781.144 799.386 781.012C797.361 780.935 794.994 788.952 798.228 789.022C802.047 789.105 805.787 789.206 809.51 789.294C809.395 794.661 808.948 806.276 808.957 816.301C807.021 821.331 804.332 826.156 801.058 828.729C801.991 825.443 801.656 819.123 794.448 813.553C791.894 811.58 788.831 809.242 784.539 806.02C787.222 802.737 790.124 798.088 790.184 794.527C790.22 792.328 788.535 790.232 784.75 790.259C777.911 790.308 773.332 796.682 773.352 801.935C773.365 805.247 775.473 807.587 776.386 808.802C765.347 829.464 762.902 831.995 760.787 831.995C759.413 831.995 758.784 828.997 758.891 819.767C758.986 811.505 759.561 805.935 759.565 799.228C759.566 796.424 757.806 794.819 756.005 793.793C755.007 793.225 750.658 791.61 749.361 791.572C747.461 791.515 744.733 793.264 742.461 795.798C737.168 801.703 734.215 810.714 731.72 818.229L731.791 796.03C731.792 795.647 731.815 794.991 731.72 794.612C731.48 793.655 730.784 793.228 729.894 792.979C728.218 792.508 725.179 791.747 723.434 791.747C722.789 791.747 722.341 792.193 722.142 792.74C721.97 793.211 722.106 803.718 722.044 814.702C722.004 821.943 721.948 828.919 722.082 833.473C722.224 838.298 722.317 841.356 728.497 841.382C731.376 841.394 732.016 841.469 732.423 839.056C733.811 830.819 738.36 810.834 748.314 800.201C748.624 799.909 749.204 800.088 749.163 800.759C748.498 811.418 747.723 824.062 749.147 834.411C749.551 837.347 751.305 841.828 754.886 841.828C759.707 841.828 763.213 840.734 772.394 825.985C774.64 822.375 777.184 818.018 780.266 812.655C782.149 814.368 784.059 816.053 785.916 817.795C789.313 820.979 791.193 824.337 791.265 827.416C791.353 831.203 789.405 834.424 786.32 834.409C781.986 834.39 779.821 830.196 777.217 830.204C774.479 830.212 772.283 835.013 772.305 837.083C772.33 839.45 778.529 842.185 786.491 842.172C792.53 842.163 797.314 839.828 801.419 836.17C804.65 833.292 807.929 827.674 809.75 823.099C810.06 831.057 814.395 841.382 821.844 841.382C825.379 841.382 828.804 839.008 831.454 835.649C833.23 833.399 834.254 831.609 835.317 828.995C835.996 831.227 836.946 833.685 837.697 834.826C839.919 838.201 842.888 841.244 847.284 841.53C852.291 841.856 855.64 840.039 858.243 837.538C860.237 835.62 861.363 833.983 862.808 831.453C863.358 836.625 868.226 841.576 874.108 841.465C879.571 841.361 882.222 837.118 883.754 832.209C884.281 833.438 884.948 834.621 885.798 835.772C892.229 844.483 902.682 842.8 909.318 834.073C909.357 836.091 909.398 838.066 909.402 838.622C903.558 844.221 896.934 849.391 892.049 855.557C888.973 859.441 887.705 863.753 887.889 866.906C888.258 873.229 895.098 877.596 901.237 877.596C913.295 877.596 917.09 868.555 918.885 855.956C919.846 849.208 919.086 842.311 919.233 836.183C926.56 827.698 935.439 814.141 938.03 803.441L945.162 803.265C945.508 803.255 945.974 803.305 946.222 803.553C946.425 803.756 946.212 804.332 946.066 805.073C944.196 814.548 941.664 825.586 946.402 834.295C948.677 838.472 952.209 841.433 957.149 841.516C961.727 841.597 965.853 837.746 967.984 833.969C970.263 837.669 973.349 841.219 978.116 841.529C983.123 841.855 986.472 840.038 989.075 837.537C991.069 835.619 992.196 833.982 993.64 831.452C993.946 832.433 994.219 834.001 994.675 834.867C996.638 838.595 1000.3 841.369 1003.73 841.504C1010.77 841.783 1012.49 837.132 1014.19 833.622C1014.23 835.064 1014.42 837.997 1014.64 839.064C1014.76 839.599 1015.14 839.99 1015.62 840.23C1017.37 841.105 1019.74 841.392 1021.92 841.379C1023.25 841.371 1025.11 841.56 1025.94 840.322C1026.42 839.612 1026.39 838.074 1026.43 837.221C1026.59 833.867 1026.71 828.227 1026.92 826.024C1027.63 819.943 1028.46 816.641 1030.05 812.731C1031.04 810.306 1031.88 807.763 1033.85 804.417C1033.95 804.253 1034.12 804.134 1034.32 804.134C1034.7 804.134 1034.85 804.456 1034.85 804.73C1034.91 807.476 1034.96 809.985 1035.08 812.336C1035.41 818.834 1035.95 824.113 1036.95 829.774C1037.14 830.825 1037.32 832.014 1037.66 833.033C1038.57 835.796 1041.17 837.791 1044.23 837.791C1045.17 837.791 1046.06 837.606 1046.87 837.271C1047.1 837.174 1047.33 837.057 1047.54 836.916C1047.96 836.637 1048.18 836.361 1048.29 835.869C1048.36 835.551 1048.35 835.176 1048.35 834.842C1048.36 834.563 1048.37 834.288 1048.38 834.014C1048.56 829.111 1049.02 825.018 1050.01 820.773C1051.6 813.992 1053.61 807.646 1055.74 803.812C1055.82 803.671 1055.89 803.49 1056.08 803.49C1056.23 803.49 1056.33 803.598 1056.34 803.743C1056.36 803.875 1056.35 804.091 1056.34 804.184C1056.1 806.3 1056.03 808.462 1056.02 810.605C1056.01 813.875 1056.01 817.152 1056.2 820.419C1056.41 824.299 1056.84 828.077 1057.63 830.925C1058.03 832.346 1058.51 833.6 1059.07 834.699C1061.01 838.463 1064.44 841.379 1068.88 841.379C1074.15 841.379 1077.46 837.413 1078.83 832.749C1079.16 831.641 1079.45 830.569 1079.66 829.397C1079.88 828.171 1080.44 824.316 1079.5 823.492ZM860.696 818.074C860.332 830.53 854.776 835.648 850.636 834.877C845.609 833.941 843.99 827.286 844.785 815.334C845.508 804.498 849.388 798.644 853.728 798.628C860.527 798.603 861.386 810.596 860.696 818.074ZM908.607 818.074C908.242 830.53 902.686 835.648 898.546 834.877C893.52 833.941 891.901 827.286 892.696 815.334C893.735 799.746 903.046 794.44 907.26 801.784C909.037 804.882 908.833 810.294 908.607 818.074ZM903.986 872.212C899.313 874.717 894.104 870.79 895.894 864.58C897.569 858.769 905.662 850.453 909.911 845.634C910.005 852.029 910.501 868.72 903.986 872.212ZM991.529 818.074C991.166 830.53 985.609 835.648 981.469 834.877C976.443 833.941 974.824 827.286 975.619 815.334C976.341 804.498 980.221 798.644 984.561 798.628C991.361 798.603 992.219 810.596 991.529 818.074Z" fill="url(#paint3_linear_384_40)"/>
<path d="M1421.77 621.217C1419.54 612.922 1413 606.381 1404.7 604.148C1389.54 600 1328.92 600 1328.92 600C1328.92 600 1268.3 600 1253.15 603.988C1245.01 606.222 1238.31 612.922 1236.08 621.217C1232.09 636.373 1232.09 667.8 1232.09 667.8C1232.09 667.8 1232.09 699.387 1236.08 714.383C1238.31 722.678 1244.85 729.219 1253.15 731.452C1268.46 735.6 1328.92 735.6 1328.92 735.6C1328.92 735.6 1389.54 735.6 1404.7 731.612C1413 729.378 1419.54 722.838 1421.77 714.542C1425.76 699.387 1425.76 667.96 1425.76 667.96C1425.76 667.96 1425.92 636.373 1421.77 621.217Z" fill="#FF0000"/>
<path d="M1309.62 696.834L1360.03 667.799L1309.62 638.765V696.834Z" fill="white"/>
<path d="M1247.97 839.7C1245.57 838.1 1243.87 835.6 1242.87 832.1C1241.87 828.7 1241.37 824.1 1241.37 818.5V810.8C1241.37 805.1 1241.97 800.5 1243.07 797C1244.27 793.5 1246.07 791 1248.47 789.4C1250.97 787.8 1254.17 787 1258.17 787C1262.07 787 1265.27 787.8 1267.67 789.4C1270.07 791 1271.77 793.6 1272.87 797C1273.97 800.4 1274.57 805 1274.57 810.8V818.5C1274.57 824.2 1274.07 828.7 1272.97 832.2C1271.87 835.6 1270.17 838.2 1267.77 839.8C1265.37 841.4 1262.07 842.2 1257.97 842.2C1253.77 842.1 1250.37 841.3 1247.97 839.7ZM1261.47 831.3C1262.17 829.6 1262.47 826.7 1262.47 822.8V806.2C1262.47 802.4 1262.17 799.6 1261.47 797.8C1260.77 796 1259.67 795.2 1257.97 795.2C1256.37 795.2 1255.17 796.1 1254.57 797.8C1253.87 799.6 1253.57 802.4 1253.57 806.2V822.8C1253.57 826.7 1253.87 829.6 1254.57 831.3C1255.17 833 1256.37 833.9 1258.07 833.9C1259.67 833.9 1260.77 833.1 1261.47 831.3Z" fill="#282828"/>
<path d="M1432.57 818.6V821.3C1432.57 824.7 1432.67 827.3 1432.87 829C1433.07 830.7 1433.47 832 1434.17 832.7C1434.77 833.5 1435.77 833.9 1437.17 833.9C1438.97 833.9 1440.17 833.2 1440.87 831.8C1441.57 830.4 1441.87 828.1 1441.97 824.8L1452.27 825.4C1452.37 825.9 1452.37 826.5 1452.37 827.3C1452.37 832.2 1451.07 835.9 1448.37 838.3C1445.67 840.7 1441.87 841.9 1436.97 841.9C1431.07 841.9 1426.97 840 1424.57 836.3C1422.17 832.6 1420.97 826.9 1420.97 819.1V809.8C1420.97 801.8 1422.17 796 1424.67 792.3C1427.17 788.6 1431.37 786.8 1437.27 786.8C1441.37 786.8 1444.57 787.6 1446.77 789.1C1448.97 790.6 1450.47 793 1451.37 796.1C1452.27 799.3 1452.67 803.7 1452.67 809.3V818.4H1432.57V818.6ZM1434.07 796.2C1433.47 797 1433.07 798.2 1432.87 799.9C1432.67 801.6 1432.57 804.2 1432.57 807.7V811.5H1441.37V807.7C1441.37 804.3 1441.27 801.7 1441.07 799.9C1440.87 798.1 1440.37 796.9 1439.77 796.2C1439.17 795.5 1438.17 795.1 1436.97 795.1C1435.57 795 1434.67 795.4 1434.07 796.2Z" fill="#282828"/>
<path d="M1218.77 817.6L1205.17 768.3H1217.07L1221.87 790.6C1223.07 796.1 1223.97 800.8 1224.57 804.7H1224.87C1225.27 801.9 1226.17 797.3 1227.57 790.7L1232.57 768.3H1244.47L1230.67 817.6V841.2H1218.87V817.6H1218.77Z" fill="#282828"/>
<path d="M1313.27 788V841.3H1303.87L1302.87 834.8H1302.57C1300.07 839.7 1296.17 842.2 1291.07 842.2C1287.57 842.2 1284.97 841 1283.27 838.7C1281.57 836.4 1280.77 832.8 1280.77 827.8V788H1292.77V827.1C1292.77 829.5 1293.07 831.2 1293.57 832.2C1294.07 833.2 1294.97 833.7 1296.17 833.7C1297.17 833.7 1298.17 833.4 1299.17 832.7C1300.17 832.1 1300.87 831.3 1301.27 830.3V788H1313.27Z" fill="#282828"/>
<path d="M1374.77 788V841.3H1365.37L1364.37 834.8H1364.07C1361.57 839.7 1357.67 842.2 1352.57 842.2C1349.07 842.2 1346.47 841 1344.77 838.7C1343.07 836.4 1342.27 832.8 1342.27 827.8V788H1354.27V827.1C1354.27 829.5 1354.57 831.2 1355.07 832.2C1355.57 833.2 1356.47 833.7 1357.67 833.7C1358.67 833.7 1359.67 833.4 1360.67 832.7C1361.67 832.1 1362.37 831.3 1362.77 830.3V788H1374.77Z" fill="#282828"/>
<path d="M1345.87 778H1333.97V841.2H1322.27V778H1310.37V768.3H1345.87V778Z" fill="#282828"/>
<path d="M1414.47 796.5C1413.77 793.1 1412.57 790.7 1410.97 789.2C1409.37 787.7 1407.07 786.9 1404.27 786.9C1402.07 786.9 1399.97 787.5 1398.07 788.8C1396.17 790 1394.67 791.7 1393.67 793.7H1393.57V765.6H1381.97V841.2H1391.87L1393.07 836.2H1393.37C1394.27 838 1395.67 839.4 1397.57 840.5C1399.47 841.5 1401.47 842.1 1403.77 842.1C1407.87 842.1 1410.77 840.2 1412.67 836.5C1414.57 832.8 1415.57 826.9 1415.57 819V810.6C1415.47 804.5 1415.17 799.8 1414.47 796.5ZM1403.47 818.2C1403.47 822.1 1403.27 825.1 1402.97 827.3C1402.67 829.5 1402.07 831.1 1401.37 832C1400.57 832.9 1399.57 833.4 1398.37 833.4C1397.37 833.4 1396.47 833.2 1395.67 832.7C1394.87 832.2 1394.17 831.5 1393.67 830.6V800.4C1394.07 799 1394.77 797.8 1395.77 796.8C1396.77 795.9 1397.87 795.4 1398.97 795.4C1400.17 795.4 1401.17 795.9 1401.77 796.8C1402.47 797.8 1402.87 799.4 1403.17 801.6C1403.47 803.9 1403.57 807.1 1403.57 811.2V818.2H1403.47Z" fill="#282828"/>
<path d="M459.074 506.262C465.995 507.845 472.901 509.29 479.75 511.183C480.852 511.488 494.169 515.508 493.917 514.407C490.647 500.097 487.13 488.783 488.628 473.677C490.074 459.101 494.46 444.59 500.484 431.254C511.6 406.647 528.126 385.104 548.643 367.482C566.21 352.392 589.846 338.018 613.833 337.815C618.327 337.777 639.928 341.299 635.978 349.927C634.131 353.961 629.622 350.93 626.313 350.345C619.551 349.148 613.134 350.107 606.449 351.762C557.174 363.962 520.049 422.789 512.65 469.531C510.671 482.037 510.701 494.834 515.062 506.92C516.02 509.576 519.114 519.445 521.9 519.522C524.595 519.596 529.997 504.595 531.437 501.985C536.59 492.646 542.228 479.847 550.161 472.501C553.734 469.193 557.963 467.249 562.027 470.934C566.894 475.348 563.417 481.229 561.341 485.968C555.477 499.356 547.218 511.756 539.845 524.373C533.129 535.864 528.831 548.497 513.734 543.295C498.636 538.094 483.924 530.54 469.46 523.83C465.422 521.956 453.971 518.121 452.293 512.815C449.824 505.005 458.35 509.485 459.074 506.262C465.26 507.677 459.032 506.447 459.074 506.262Z" fill="url(#paint4_linear_384_40)"/>
<path d="M1313.93 506.262C1307.01 507.845 1300.1 509.29 1293.25 511.183C1292.15 511.488 1278.83 515.508 1279.08 514.407C1282.35 500.097 1285.87 488.783 1284.37 473.677C1282.93 459.101 1278.54 444.59 1272.52 431.254C1261.4 406.647 1244.87 385.104 1224.36 367.482C1206.79 352.392 1183.15 338.018 1159.17 337.815C1154.67 337.777 1133.07 341.299 1137.02 349.927C1138.87 353.961 1143.38 350.93 1146.69 350.345C1153.45 349.148 1159.87 350.107 1166.55 351.762C1215.83 363.962 1252.95 422.789 1260.35 469.531C1262.33 482.037 1262.3 494.834 1257.94 506.92C1256.98 509.576 1253.89 519.445 1251.1 519.522C1248.41 519.596 1243 504.595 1241.56 501.985C1236.41 492.646 1230.77 479.847 1222.84 472.501C1219.27 469.193 1215.04 467.249 1210.97 470.934C1206.11 475.348 1209.58 481.229 1211.66 485.968C1217.52 499.356 1225.78 511.756 1233.15 524.373C1239.87 535.864 1244.17 548.497 1259.27 543.295C1274.36 538.094 1289.08 530.54 1303.54 523.83C1307.58 521.956 1319.03 518.121 1320.71 512.815C1323.18 505.005 1314.65 509.485 1313.93 506.262C1307.74 507.677 1313.97 506.447 1313.93 506.262Z" fill="url(#paint5_linear_384_40)"/>
<path d="M902.005 478.23C901.948 452.168 902.341 426.099 901.657 400.046C901.28 385.66 899.505 371.25 897.538 356.956C896.689 350.789 893.406 343.601 885.789 345.827C882.16 346.888 878.773 353.499 877.966 358.098C876.681 365.414 877.647 373.15 877.66 380.709C877.735 421.128 877.809 461.548 877.884 501.967C876.66 502.399 875.435 502.832 874.211 503.264C869.902 495.441 866.18 487.216 861.141 479.894C854.148 469.732 846.656 459.789 838.269 450.788C836.112 448.474 829.35 448.9 825.608 450.351C824 450.974 823.136 458.185 824.585 461.106C838.978 490.113 853.198 519.252 868.988 547.513C878.575 564.669 892.937 564.759 901.577 547.082C916.565 516.414 929.237 484.584 942.571 453.106C944.964 447.456 946.779 440.305 939.674 436.628C932.717 433.028 928.191 438.041 924.826 443.694C920.987 450.144 917.104 456.573 913.47 463.14C910.583 468.359 908.041 473.773 905.346 479.1C904.232 478.81 903.119 478.52 902.005 478.23Z" fill="url(#paint6_linear_384_40)"/>
<rect x="598" y="205.5" width="577" height="152" rx="32.5" fill="white"/>
<rect x="598" y="205.5" width="577" height="152" rx="32.5" stroke="#ECECEC" stroke-width="5"/>
<g clip-path="url(#clip0_384_40)">
<path d="M734.359 325.379H640.734V237.621H693.139C694.692 237.621 700.24 239.844 701.909 240.663C724.851 251.938 728.302 283.357 715.344 304.603L734.359 325.379ZM707.017 313.352L699.568 305.11C708.997 296.869 712.249 284.962 711.156 272.154C710.178 260.754 699.382 249.203 688.586 249.203H651.919V313.352H667.454C667.612 313.352 668.904 312.34 668.904 312.238V267.913H685.682C686.374 267.913 689.518 269.962 690.227 270.599C697.178 276.818 694.427 287.345 687.393 291.938L679.671 283.95V313.352H707.017Z" fill="#5046E6"/>
<path d="M757.766 313.453V252.151H781.836C786.443 252.151 790.376 252.979 793.633 254.636C796.91 256.272 799.403 258.597 801.11 261.61C802.838 264.603 803.702 268.125 803.702 272.176C803.702 276.247 802.828 279.749 801.081 282.682C799.333 285.596 796.801 287.831 793.484 289.387C790.188 290.944 786.195 291.722 781.508 291.722H765.392V281.305H779.423C781.886 281.305 783.932 280.967 785.56 280.288C787.188 279.609 788.4 278.592 789.194 277.235C790.009 275.878 790.416 274.192 790.416 272.176C790.416 270.141 790.009 268.425 789.194 267.028C788.4 265.631 787.178 264.573 785.53 263.855C783.902 263.117 781.846 262.747 779.364 262.747H770.665V313.453H757.766ZM790.714 285.556L805.877 313.453H791.637L776.801 285.556H790.714Z" fill="black"/>
<path d="M832.695 314.351C827.988 314.351 823.937 313.393 820.541 311.477C817.164 309.541 814.563 306.808 812.736 303.276C810.909 299.724 809.995 295.524 809.995 290.674C809.995 285.945 810.909 281.794 812.736 278.222C814.563 274.65 817.135 271.867 820.452 269.871C823.788 267.876 827.701 266.878 832.189 266.878C835.207 266.878 838.018 267.367 840.619 268.345C843.241 269.302 845.525 270.749 847.471 272.685C849.438 274.62 850.966 277.055 852.059 279.988C853.151 282.902 853.697 286.314 853.697 290.225V293.728H815.059V285.825H841.751C841.751 283.989 841.354 282.363 840.56 280.946C839.766 279.529 838.663 278.422 837.253 277.624C835.863 276.806 834.244 276.396 832.397 276.396C830.471 276.396 828.763 276.845 827.274 277.743C825.804 278.621 824.652 279.809 823.818 281.305C822.984 282.782 822.557 284.428 822.537 286.244V293.757C822.537 296.032 822.954 297.998 823.788 299.654C824.642 301.31 825.844 302.587 827.393 303.485C828.942 304.383 830.779 304.833 832.904 304.833C834.314 304.833 835.605 304.633 836.777 304.234C837.948 303.834 838.951 303.236 839.785 302.438C840.619 301.639 841.255 300.662 841.692 299.504L853.429 300.283C852.833 303.116 851.612 305.59 849.765 307.706C847.938 309.801 845.575 311.437 842.675 312.615C839.796 313.772 836.469 314.351 832.695 314.351Z" fill="black"/>
<path d="M861.979 313.453V267.477H874.074V275.588H874.61C875.564 272.894 877.153 270.769 879.377 269.213C881.601 267.656 884.263 266.878 887.361 266.878C890.499 266.878 893.17 267.666 895.374 269.243C897.579 270.799 899.048 272.914 899.783 275.588H900.26C901.193 272.954 902.882 270.849 905.324 269.273C907.787 267.676 910.696 266.878 914.053 266.878C918.323 266.878 921.788 268.245 924.449 270.979C927.131 273.693 928.471 277.544 928.471 282.532V313.453H915.811V285.047C915.811 282.493 915.135 280.577 913.785 279.3C912.434 278.023 910.746 277.384 908.72 277.384C906.417 277.384 904.619 278.122 903.329 279.599C902.037 281.056 901.392 282.982 901.392 285.376V313.453H889.089V284.778C889.089 282.523 888.443 280.727 887.152 279.39C885.881 278.053 884.203 277.384 882.118 277.384C880.708 277.384 879.437 277.743 878.304 278.462C877.193 279.16 876.309 280.148 875.653 281.425C874.998 282.682 874.67 284.159 874.67 285.855V313.453H861.979Z" fill="black"/>
<path d="M951.543 314.321C948.624 314.321 946.022 313.812 943.739 312.794C941.455 311.757 939.647 310.23 938.317 308.215C937.006 306.179 936.351 303.645 936.351 300.612C936.351 298.058 936.817 295.913 937.75 294.176C938.684 292.44 939.955 291.044 941.564 289.986C943.172 288.928 945 288.13 947.045 287.591C949.11 287.052 951.275 286.673 953.539 286.454C956.201 286.175 958.345 285.915 959.974 285.675C961.603 285.416 962.784 285.037 963.519 284.538C964.254 284.039 964.621 283.301 964.621 282.323V282.143C964.621 280.248 964.026 278.781 962.834 277.743C961.662 276.706 959.994 276.187 957.829 276.187C955.545 276.187 953.728 276.696 952.377 277.714C951.027 278.711 950.133 279.969 949.696 281.485L937.959 280.527C938.555 277.733 939.727 275.319 941.474 273.283C943.222 271.228 945.476 269.652 948.237 268.554C951.017 267.437 954.234 266.878 957.889 266.878C960.431 266.878 962.864 267.177 965.187 267.776C967.531 268.375 969.606 269.302 971.414 270.56C973.241 271.817 974.68 273.433 975.733 275.409C976.786 277.364 977.312 279.709 977.312 282.443V313.453H965.277V307.077H964.919C964.184 308.514 963.201 309.781 961.97 310.878C960.739 311.956 959.259 312.804 957.531 313.423C955.804 314.021 953.807 314.321 951.543 314.321ZM955.178 305.521C957.045 305.521 958.693 305.152 960.123 304.413C961.553 303.655 962.675 302.637 963.489 301.36C964.303 300.083 964.711 298.636 964.711 297.02V292.141C964.314 292.4 963.767 292.64 963.072 292.859C962.397 293.059 961.632 293.248 960.778 293.428C959.924 293.588 959.071 293.737 958.216 293.877C957.362 293.997 956.588 294.107 955.893 294.206C954.403 294.426 953.102 294.775 951.99 295.254C950.878 295.733 950.014 296.381 949.399 297.199C948.783 297.998 948.475 298.995 948.475 300.193C948.475 301.929 949.1 303.256 950.352 304.174C951.623 305.072 953.232 305.521 955.178 305.521Z" fill="black"/>
<path d="M998.657 300.223L998.687 284.927H1000.53L1015.19 267.477H1029.76L1010.07 290.585H1007.06L998.657 300.223ZM987.158 313.453V252.151H999.849V313.453H987.158ZM1015.76 313.453L1002.29 293.428L1010.75 284.419L1030.62 313.453H1015.76Z" fill="black"/>
<path d="M1054.95 314.351C1050.25 314.351 1046.19 313.393 1042.8 311.477C1039.42 309.541 1036.82 306.808 1034.99 303.276C1033.17 299.724 1032.25 295.524 1032.25 290.674C1032.25 285.945 1033.17 281.794 1034.99 278.222C1036.82 274.65 1039.39 271.867 1042.71 269.871C1046.05 267.876 1049.96 266.878 1054.45 266.878C1057.47 266.878 1060.28 267.367 1062.88 268.345C1065.5 269.302 1067.78 270.749 1069.73 272.685C1071.7 274.62 1073.22 277.055 1074.32 279.988C1075.41 282.902 1075.96 286.314 1075.96 290.225V293.728H1037.32V285.825H1064.01C1064.01 283.989 1063.61 282.363 1062.82 280.946C1062.02 279.529 1060.92 278.422 1059.51 277.624C1058.12 276.806 1056.5 276.396 1054.66 276.396C1052.73 276.396 1051.02 276.845 1049.53 277.743C1048.06 278.621 1046.91 279.809 1046.08 281.305C1045.24 282.782 1044.81 284.428 1044.79 286.244V293.757C1044.79 296.032 1045.21 297.998 1046.05 299.654C1046.9 301.31 1048.1 302.587 1049.65 303.485C1051.2 304.383 1053.04 304.833 1055.16 304.833C1056.57 304.833 1057.86 304.633 1059.03 304.234C1060.21 303.834 1061.21 303.236 1062.04 302.438C1062.88 301.639 1063.51 300.662 1063.95 299.504L1075.69 300.283C1075.09 303.116 1073.87 305.59 1072.02 307.706C1070.2 309.801 1067.83 311.437 1064.93 312.615C1062.05 313.772 1058.73 314.351 1054.95 314.351Z" fill="black"/>
<path d="M1084.24 313.453V267.476H1096.93V313.453H1084.24ZM1090.61 261.55C1088.72 261.55 1087.11 260.921 1085.76 259.664C1084.42 258.387 1083.76 256.86 1083.76 255.084C1083.76 253.328 1084.42 251.822 1085.76 250.565C1087.11 249.288 1088.72 248.649 1090.61 248.649C1092.5 248.649 1094.11 249.288 1095.44 250.565C1096.79 251.822 1097.46 253.328 1097.46 255.084C1097.46 256.86 1096.79 258.387 1095.44 259.664C1094.11 260.921 1092.5 261.55 1090.61 261.55Z" fill="black"/>
<path d="M1131.43 267.477V277.055H1103.88V267.477H1131.43ZM1110.13 256.461H1122.82V299.325C1122.82 300.502 1123 301.42 1123.36 302.079C1123.72 302.717 1124.21 303.166 1124.85 303.426C1125.5 303.685 1126.26 303.815 1127.11 303.815C1127.71 303.815 1128.31 303.765 1128.9 303.665C1129.49 303.545 1129.95 303.456 1130.27 303.396L1132.27 312.884C1131.63 313.084 1130.74 313.313 1129.58 313.573C1128.43 313.852 1127.03 314.021 1125.38 314.081C1122.33 314.201 1119.65 313.792 1117.34 312.854C1115.06 311.916 1113.28 310.459 1112.01 308.484C1110.74 306.508 1110.11 304.014 1110.13 301.001V256.461Z" fill="black"/>
</g>
<defs>
<radialGradient id="paint0_radial_384_40" cx="0" cy="0" r="1" gradientUnits="userSpaceOnUse" gradientTransform="translate(849.287 744.842) rotate(-90) scale(132.338 123.119)">
<stop stop-color="#FFDD55"/>
<stop offset="0.1" stop-color="#FFDD55"/>
<stop offset="0.5" stop-color="#FF543E"/>
<stop offset="1" stop-color="#C837AB"/>
</radialGradient>
<radialGradient id="paint1_radial_384_40" cx="0" cy="0" r="1" gradientTransform="matrix(11.6141 58.0051 -239.159 47.8866 791.435 610.647)" gradientUnits="userSpaceOnUse">
<stop stop-color="#3771C8"/>
<stop offset="0.128" stop-color="#3771C8"/>
<stop offset="1" stop-color="#6600FF" stop-opacity="0"/>
</radialGradient>
<linearGradient id="paint2_linear_384_40" x1="721.998" y1="821.646" x2="1080.03" y2="821.646" gradientUnits="userSpaceOnUse">
<stop stop-color="#E5A237"/>
<stop offset="0.5" stop-color="#CD4469"/>
<stop offset="1" stop-color="#575ECA"/>
</linearGradient>
<linearGradient id="paint3_linear_384_40" x1="721.998" y1="821.646" x2="1080.03" y2="821.646" gradientUnits="userSpaceOnUse">
<stop stop-color="#E5A237"/>
<stop offset="0.5" stop-color="#CD4469"/>
<stop offset="1" stop-color="#575ECA"/>
</linearGradient>
<linearGradient id="paint4_linear_384_40" x1="596.795" y1="337.814" x2="482.44" y2="525.887" gradientUnits="userSpaceOnUse">
<stop stop-color="#5046E6"/>
<stop offset="1" stop-color="#A1B9FF"/>
</linearGradient>
<linearGradient id="paint5_linear_384_40" x1="1176.2" y1="337.814" x2="1290.56" y2="525.887" gradientUnits="userSpaceOnUse">
<stop stop-color="#5046E6"/>
<stop offset="1" stop-color="#A1B9FF"/>
</linearGradient>
<linearGradient id="paint6_linear_384_40" x1="860.606" y1="539.149" x2="925.488" y2="383.912" gradientUnits="userSpaceOnUse">
<stop stop-color="#5046E6"/>
<stop offset="1" stop-color="#A1B9FF"/>
</linearGradient>
<clipPath id="clip0_384_40">
<rect width="492" height="107" fill="white" transform="translate(640.5 228)"/>
</clipPath>
</defs>
</svg>
