<svg class="navbar_logo_svg" fill="none" viewBox="0 0 32 32" width="100%" xmlns="http://www.w3.org/2000/svg"><path d="M32 31H0V1H17.9115C18.4425 1 20.3384 1.7599 20.909 2.0401C28.7504 5.89442 29.9299 16.635 25.5009 23.8975L32 31ZM22.6549 26.8883L20.109 24.0711C23.3317 21.2538 24.4432 17.1832 24.0694 12.8051C23.7352 8.90812 20.0453 4.95939 16.3554 4.95939H3.82301V26.8883H9.13274C9.18655 26.8883 9.62832 26.5426 9.62832 26.5076V11.3553H15.3628C15.5993 11.3553 16.674 12.0558 16.9161 12.2736C19.292 14.3995 18.3519 17.998 15.9476 19.568L13.3083 16.8376V26.8883H22.6549Z" fill="currentColor"></path></svg>